<?xml version="1.0" encoding="utf-8"?>
<!-- Generator: Adobe Illustrator 16.0.4, SVG Export Plug-In . SVG Version: 6.00 Build 0)  -->
<!DOCTYPE svg PUBLIC "-//W3C//DTD SVG 1.1//EN" "http://www.w3.org/Graphics/SVG/1.1/DTD/svg11.dtd">
<svg version="1.1" id="Layer_1" xmlns="http://www.w3.org/2000/svg" xmlns:xlink="http://www.w3.org/1999/xlink" x="0px" y="0px"
	 width="50px" height="50px" viewBox="0 0 50 50" enable-background="new 0 0 50 50" xml:space="preserve">
<path d="M40.004,24.25h-6.992l3.119-3.119c0.293-0.293,0.293-0.768,0-1.061c-0.293-0.293-0.769-0.293-1.062,0l-4.106,4.107v-4.389
	c0-0.414-0.336-0.75-0.75-0.75h-4.461V18.87l4.351-4.351c0.293-0.293,0.293-0.768,0-1.061s-0.769-0.293-1.062,0l-3.289,3.29v-6.75
	c0-0.414-0.336-0.75-0.75-0.75s-0.75,0.336-0.75,0.75v6.75l-3.29-3.29c-0.293-0.293-0.768-0.293-1.061,0s-0.293,0.768,0,1.061
	l4.35,4.351v0.168H19.79c-0.414,0-0.75,0.336-0.75,0.75v4.388l-4.106-4.106c-0.293-0.293-0.768-0.293-1.061,0
	c-0.293,0.293-0.293,0.768,0,1.061l3.118,3.119H10c-0.414,0-0.75,0.336-0.75,0.75s0.336,0.75,0.75,0.75h6.991l-3.118,3.119
	c-0.293,0.293-0.293,0.768,0,1.061c0.146,0.146,0.338,0.221,0.53,0.221s0.384-0.073,0.53-0.221l4.106-4.105v4.388
	c0,0.414,0.336,0.75,0.75,0.75h4.461v0.168l-4.35,4.351c-0.293,0.293-0.293,0.769,0,1.062s0.768,0.293,1.061,0l3.29-3.29v6.75
	c0,0.414,0.336,0.75,0.75,0.75s0.75-0.336,0.75-0.75v-6.75l3.291,3.291c0.146,0.146,0.338,0.221,0.529,0.221s0.385-0.074,0.53-0.221
	c0.293-0.293,0.293-0.768,0-1.061l-4.351-4.352v-0.168h4.461c0.414,0,0.75-0.336,0.75-0.75v-4.389l4.106,4.107
	c0.146,0.146,0.338,0.219,0.53,0.219c0.191,0,0.384-0.072,0.529-0.219c0.293-0.294,0.293-0.769,0-1.062l-3.117-3.119H40
	c0.414,0,0.75-0.336,0.75-0.75S40.418,24.25,40.004,24.25z M29.463,29.461h-3.709h-1.5h-3.711V25.75v-1.5v-3.711h3.711h1.5h3.709
	v3.711v1.5V29.461z M36.545,35.48c0.293,0.293,0.293,0.768,0,1.061c-0.146,0.146-0.338,0.22-0.531,0.22
	c-0.191,0-0.383-0.073-0.529-0.22l-2.611-2.611c-0.293-0.294-0.293-0.769,0-1.062s0.768-0.293,1.061,0L36.545,35.48z M17.548,32.868
	c0.293,0.293,0.293,0.768,0,1.062l-2.612,2.611c-0.146,0.146-0.338,0.22-0.53,0.22c-0.192,0-0.384-0.073-0.53-0.22
	c-0.293-0.293-0.293-0.768,0-1.061l2.612-2.612C16.781,32.575,17.255,32.575,17.548,32.868z M13.876,15.212
	c-0.292-0.293-0.292-0.768,0-1.061c0.293-0.292,0.768-0.292,1.061,0l2.611,2.614c0.292,0.293,0.292,0.768,0,1.061
	c-0.146,0.146-0.338,0.219-0.53,0.219s-0.384-0.073-0.531-0.22L13.876,15.212z M32.869,17.832c-0.291-0.293-0.291-0.768,0-1.061
	l2.615-2.611c0.292-0.292,0.768-0.292,1.061,0c0.293,0.293,0.293,0.768,0,1.061l-2.615,2.611c-0.145,0.146-0.338,0.219-0.529,0.219
	S33.017,17.979,32.869,17.832z"/>
</svg>
