<?xml version="1.0" encoding="utf-8"?>
<!-- Generator: Adobe Illustrator 16.0.4, SVG Export Plug-In . SVG Version: 6.00 Build 0)  -->
<!DOCTYPE svg PUBLIC "-//W3C//DTD SVG 1.1//EN" "http://www.w3.org/Graphics/SVG/1.1/DTD/svg11.dtd">
<svg version="1.1" id="Layer_1" xmlns="http://www.w3.org/2000/svg" xmlns:xlink="http://www.w3.org/1999/xlink" x="0px" y="0px"
	 width="50px" height="50px" viewBox="0 0 50 50" enable-background="new 0 0 50 50" xml:space="preserve">
<path d="M42.387,24.25h-3.09l0.845-1.464c0.207-0.359,0.083-0.817-0.274-1.024c-0.358-0.207-0.817-0.085-1.024,0.274l-1.276,2.214
	h-2.102l2.514-4.354c0.207-0.358,0.084-0.817-0.273-1.024s-0.818-0.084-1.024,0.274l-2.948,5.104h-2.023
	c-0.213-1.918-1.234-3.591-2.713-4.684l1.018-1.76l5.896-0.002c0.414,0,0.75-0.336,0.75-0.75s-0.336-0.75-0.75-0.75l-5.029,0.002
	l1.05-1.82l2.556,0.002l0,0c0.414,0,0.75-0.336,0.75-0.75s-0.334-0.75-0.75-0.75l-1.689-0.002l1.545-2.676
	c0.207-0.358,0.084-0.817-0.273-1.024c-0.358-0.207-0.817-0.084-1.024,0.274l-1.546,2.676l-0.844-1.463
	c-0.207-0.358-0.668-0.482-1.024-0.274c-0.358,0.207-0.481,0.666-0.274,1.024l1.278,2.213l-1.05,1.818l-2.514-4.354
	c-0.207-0.358-0.666-0.481-1.024-0.274s-0.481,0.666-0.274,1.024l2.946,5.104l-1.015,1.758c-0.829-0.365-1.743-0.57-2.706-0.57
	c-0.962,0-1.877,0.205-2.707,0.568l-1.013-1.754l2.946-5.105c0.207-0.358,0.084-0.817-0.274-1.024
	c-0.358-0.208-0.818-0.084-1.024,0.274l-2.514,4.355l-1.05-1.818l1.278-2.217c0.207-0.358,0.084-0.816-0.274-1.023
	c-0.36-0.208-0.818-0.085-1.024,0.273l-0.845,1.465L16.95,9.558c-0.207-0.357-0.667-0.48-1.024-0.273
	c-0.359,0.207-0.481,0.666-0.274,1.023l1.545,2.678h-1.689c-0.414,0-0.75,0.336-0.75,0.75s0.336,0.75,0.75,0.75h2.556l1.05,1.818
	h-5.027c-0.414,0-0.75,0.336-0.75,0.75s0.336,0.75,0.75,0.75h5.894l1.017,1.762c-1.478,1.092-2.499,2.766-2.712,4.684h-2.024
	l-2.95-5.104c-0.208-0.36-0.667-0.481-1.025-0.274s-0.481,0.666-0.274,1.024l2.516,4.354h-2.104l-1.277-2.213
	c-0.207-0.359-0.667-0.48-1.024-0.273c-0.359,0.206-0.481,0.666-0.274,1.023l0.845,1.463H7.606c-0.414,0-0.75,0.336-0.75,0.75
	s0.336,0.75,0.75,0.75h3.09l-0.845,1.465c-0.207,0.359-0.083,0.817,0.275,1.023c0.118,0.068,0.247,0.102,0.374,0.102
	c0.259,0,0.511-0.135,0.65-0.375l1.277-2.215h2.103l-2.516,4.355c-0.207,0.357-0.084,0.816,0.274,1.023
	c0.118,0.068,0.247,0.102,0.375,0.102c0.259,0,0.511-0.136,0.65-0.375l2.949-5.105h2.024c0.213,1.918,1.234,3.591,2.712,4.684
	l-1.017,1.762h-5.893c-0.414,0-0.75,0.336-0.75,0.75s0.336,0.75,0.75,0.75h5.026l-1.05,1.818h-2.557c-0.414,0-0.75,0.336-0.75,0.75
	s0.336,0.75,0.75,0.75h1.69l-1.545,2.676c-0.207,0.358-0.084,0.817,0.274,1.024c0.118,0.068,0.247,0.101,0.375,0.101
	c0.259,0,0.511-0.135,0.65-0.375l1.546-2.676l0.846,1.465c0.139,0.239,0.391,0.375,0.65,0.375c0.127,0,0.256-0.033,0.375-0.102
	c0.359-0.207,0.481-0.666,0.274-1.023l-1.279-2.215l1.05-1.82l2.515,4.355c0.139,0.24,0.391,0.375,0.65,0.375
	c0.127,0,0.256-0.031,0.375-0.102c0.359-0.206,0.481-0.665,0.274-1.023l-2.947-5.105l1.013-1.756c0.83,0.365,1.744,0.57,2.707,0.57
	s1.877-0.205,2.707-0.57l1.014,1.756l-2.947,5.105c-0.207,0.358-0.084,0.817,0.273,1.023c0.118,0.068,0.247,0.102,0.375,0.102
	c0.26,0,0.512-0.135,0.65-0.375l2.515-4.355l1.052,1.82l-1.277,2.213c-0.207,0.359-0.084,0.817,0.273,1.024
	c0.118,0.067,0.247,0.101,0.375,0.101c0.26,0,0.512-0.135,0.65-0.375l0.844-1.463l1.546,2.678c0.14,0.24,0.392,0.375,0.649,0.375
	c0.127,0,0.257-0.032,0.375-0.102c0.359-0.207,0.481-0.666,0.275-1.023l-1.547-2.678h1.689c0.414,0,0.75-0.337,0.75-0.75
	c0-0.414-0.336-0.75-0.75-0.75h-2.557l-1.05-1.82l5.028,0.002c0.414,0,0.75-0.336,0.75-0.75s-0.335-0.75-0.75-0.75l-5.895-0.002
	l-1.018-1.76c1.479-1.093,2.499-2.766,2.711-4.684h2.023l2.947,5.105c0.139,0.239,0.391,0.375,0.65,0.375
	c0.127,0,0.256-0.033,0.375-0.102c0.359-0.207,0.48-0.666,0.273-1.023l-2.514-4.355h2.104l1.279,2.215
	c0.139,0.24,0.391,0.375,0.649,0.375c0.127,0,0.256-0.031,0.375-0.102c0.358-0.206,0.481-0.666,0.274-1.023l-0.847-1.465h3.091
	c0.414,0,0.75-0.335,0.75-0.75S42.801,24.25,42.387,24.25z M30.25,25c0,0.257-0.041,0.502-0.076,0.75
	c-0.197,1.361-0.911,2.544-1.943,3.359c-0.393,0.311-0.818,0.574-1.291,0.765c-0.604,0.242-1.259,0.384-1.949,0.384
	s-1.344-0.142-1.948-0.384c-0.471-0.188-0.898-0.454-1.291-0.765c-1.032-0.814-1.746-1.998-1.943-3.359
	c-0.036-0.247-0.076-0.493-0.076-0.75s0.04-0.503,0.076-0.75c0.197-1.361,0.911-2.545,1.944-3.359
	c0.393-0.312,0.82-0.576,1.291-0.765c0.604-0.242,1.258-0.384,1.948-0.384s1.344,0.142,1.948,0.384
	c0.471,0.188,0.898,0.454,1.291,0.765c1.032,0.814,1.746,1.998,1.943,3.359C30.209,24.497,30.25,24.743,30.25,25z"/>
</svg>
