<?xml version="1.0" encoding="utf-8"?>
<!-- Generator: Adobe Illustrator 16.0.4, SVG Export Plug-In . SVG Version: 6.00 Build 0)  -->
<!DOCTYPE svg PUBLIC "-//W3C//DTD SVG 1.1//EN" "http://www.w3.org/Graphics/SVG/1.1/DTD/svg11.dtd">
<svg version="1.1" id="Layer_1" xmlns="http://www.w3.org/2000/svg" xmlns:xlink="http://www.w3.org/1999/xlink" x="0px" y="0px"
	 width="50px" height="50px" viewBox="0 0 50 50" enable-background="new 0 0 50 50" xml:space="preserve">
<path d="M40,24.25h-5.777l3.979-3.979c0.293-0.293,0.293-0.768,0-1.061s-0.768-0.293-1.061,0L32.1,24.25h-1.664l-3.236-1.449
	l-1.449-3.237v-1.953l5.244-5.245c0.293-0.293,0.293-0.768,0-1.061c-0.293-0.293-0.768-0.293-1.061,0L25.75,15.49V10
	c0-0.414-0.336-0.75-0.75-0.75S24.25,9.585,24.25,10v5.49l-4.185-4.184c-0.293-0.293-0.768-0.293-1.061,0
	c-0.293,0.293-0.293,0.768,0,1.061l5.244,5.245v1.953l-1.449,3.237l-3.236,1.449h-1.664l-5.041-5.04
	c-0.293-0.293-0.768-0.293-1.061,0s-0.293,0.768,0,1.061l3.979,3.979H10c-0.414,0-0.75,0.336-0.75,0.75s0.336,0.75,0.75,0.75h5.777
	l-3.979,3.979c-0.293,0.293-0.293,0.769,0,1.062c0.146,0.146,0.338,0.219,0.53,0.219s0.384-0.072,0.53-0.219l5.039-5.041h1.664
	l3.237,1.449l1.449,3.237v1.952l-5.244,5.244c-0.293,0.293-0.293,0.769,0,1.062s0.769,0.293,1.062,0l4.184-4.185V40
	c0,0.414,0.336,0.75,0.75,0.75s0.75-0.336,0.75-0.75v-5.49l4.184,4.186c0.146,0.146,0.338,0.221,0.531,0.221
	c0.191,0,0.383-0.074,0.529-0.221c0.293-0.293,0.293-0.768,0-1.061l-5.244-5.246v-1.952l1.449-3.237l3.236-1.449H32.1l5.041,5.041
	c0.146,0.146,0.338,0.219,0.529,0.219s0.385-0.072,0.531-0.219c0.293-0.293,0.293-0.769,0-1.062l-3.98-3.979H40
	c0.414,0,0.75-0.335,0.75-0.75S40.414,24.25,40,24.25z M26.768,25.75l-0.703,0.314l-0.312,0.702l-0.75,1.674l-0.75-1.674
	l-0.313-0.702l-0.703-0.314L21.561,25l1.674-0.75l0.703-0.314l0.313-0.702l0.75-1.674l0.75,1.674l0.312,0.702l0.703,0.314L28.441,25
	L26.768,25.75z"/>
</svg>
