<?xml version="1.0" encoding="utf-8"?>
<!-- Generator: Adobe Illustrator 16.0.4, SVG Export Plug-In . SVG Version: 6.00 Build 0)  -->
<!DOCTYPE svg PUBLIC "-//W3C//DTD SVG 1.1//EN" "http://www.w3.org/Graphics/SVG/1.1/DTD/svg11.dtd">
<svg version="1.1" id="Layer_1" xmlns="http://www.w3.org/2000/svg" xmlns:xlink="http://www.w3.org/1999/xlink" x="0px" y="0px"
	 width="50px" height="50px" viewBox="0 0 50 50" enable-background="new 0 0 50 50" xml:space="preserve">
<path d="M40.004,24.25h-6.99l3.117-3.119c0.293-0.293,0.293-0.768,0-1.061c-0.293-0.293-0.768-0.293-1.061,0l-4.107,4.107v-4.079
	l5.582-5.58c0.293-0.293,0.293-0.768,0-1.061s-0.769-0.293-1.062,0l-5.581,5.58h-4.148V18.87l4.35-4.351
	c0.293-0.293,0.293-0.768,0-1.061s-0.768-0.293-1.061,0l-3.291,3.29v-6.75c0-0.414-0.335-0.75-0.75-0.75s-0.75,0.336-0.75,0.75v6.75
	l-3.29-3.29c-0.293-0.293-0.768-0.293-1.061,0s-0.293,0.768,0,1.061l4.35,4.351v0.168h-4.149l-5.581-5.58
	c-0.293-0.293-0.768-0.293-1.061,0s-0.293,0.768,0,1.061l5.58,5.579v4.079l-4.106-4.105c-0.293-0.293-0.768-0.293-1.061,0
	c-0.293,0.293-0.293,0.768,0,1.061l3.118,3.119H10c-0.414,0-0.75,0.336-0.75,0.75s0.336,0.75,0.75,0.75h6.991l-3.118,3.119
	c-0.293,0.293-0.293,0.769,0,1.062c0.146,0.146,0.338,0.22,0.53,0.22s0.384-0.072,0.53-0.22l4.106-4.106v4.078l-5.58,5.579
	c-0.293,0.293-0.293,0.769,0,1.062c0.146,0.146,0.338,0.22,0.53,0.22s0.384-0.073,0.53-0.22l5.58-5.58h4.15v0.168l-4.35,4.351
	c-0.293,0.293-0.293,0.769,0,1.062s0.768,0.293,1.061,0l3.29-3.291v6.75c0,0.414,0.336,0.75,0.75,0.75s0.75-0.336,0.75-0.75v-6.75
	l3.291,3.291c0.146,0.146,0.338,0.221,0.529,0.221s0.385-0.073,0.53-0.221c0.293-0.293,0.293-0.768,0-1.061l-4.351-4.352v-0.168
	h4.15l5.58,5.58c0.146,0.146,0.338,0.221,0.529,0.221c0.192,0,0.385-0.073,0.531-0.221c0.293-0.293,0.293-0.768,0-1.061l-5.582-5.58
	v-4.078l4.107,4.107c0.146,0.146,0.338,0.22,0.529,0.22c0.193,0,0.385-0.073,0.531-0.22c0.293-0.293,0.293-0.768,0-1.061
	l-3.119-3.119H40c0.414,0,0.75-0.336,0.75-0.75S40.418,24.25,40.004,24.25z M29.465,21.601v2.65v1.5v2.65v1.061h-1.061h-2.65h-1.5
	h-2.65h-1.061v-1.06V25.75v-1.5V21.6v-1.06h1.062h2.649h1.5h2.649h1.062V21.601z"/>
</svg>
