<?xml version="1.0" encoding="utf-8"?>
<!-- Generator: Adobe Illustrator 16.0.4, SVG Export Plug-In . SVG Version: 6.00 Build 0)  -->
<!DOCTYPE svg PUBLIC "-//W3C//DTD SVG 1.1//EN" "http://www.w3.org/Graphics/SVG/1.1/DTD/svg11.dtd">
<svg version="1.1" id="Layer_1" xmlns="http://www.w3.org/2000/svg" xmlns:xlink="http://www.w3.org/1999/xlink" x="0px" y="0px"
	 width="50px" height="50px" viewBox="0 0 50 50" enable-background="new 0 0 50 50" xml:space="preserve">
<path d="M43.908,24.621l-1.574-2.727c-0.134-0.232-0.382-0.375-0.648-0.375h-3.147c-0.269,0-0.517,0.143-0.649,0.375l-1.357,2.354
	H33.18l1.576-2.73c0.207-0.358,0.084-0.817-0.273-1.024c-0.359-0.208-0.818-0.084-1.024,0.274l-1.802,3.119
	c-0.247-1.486-0.979-2.807-2.028-3.798l3.441-0.001c0.413,0,0.75-0.336,0.75-0.75s-0.337-0.75-0.75-0.75l-3.505,0.001l1.849-3.202
	h2.716c0.268,0,0.516-0.143,0.649-0.375l1.575-2.729c0.134-0.232,0.134-0.52,0-0.75l-1.575-2.727
	c-0.134-0.231-0.382-0.375-0.649-0.375H30.98c-0.269,0-0.517,0.144-0.649,0.375l-1.575,2.727c-0.134,0.23-0.134,0.518,0,0.75
	l1.359,2.354l-1.762,3.051l-1.574-2.729c-0.206-0.358-0.665-0.481-1.024-0.274c-0.358,0.207-0.481,0.666-0.274,1.024l1.668,2.89
	c-0.676-0.228-1.396-0.355-2.148-0.355c-0.671,0-1.316,0.102-1.93,0.283l1.627-2.816c0.207-0.357,0.084-0.816-0.274-1.023
	c-0.36-0.209-0.817-0.084-1.024,0.273l-1.664,2.885l-1.854-3.207l1.36-2.351c0.134-0.231,0.134-0.519,0-0.751l-1.577-2.729
	c-0.134-0.232-0.382-0.375-0.648-0.375h-3.148c-0.268,0-0.516,0.143-0.648,0.375l-1.576,2.728c-0.133,0.231-0.133,0.518,0,0.75
	l1.576,2.729c0.135,0.231,0.383,0.375,0.649,0.375h0.001l2.714-0.004l1.851,3.204h-3.322c-0.414,0-0.75,0.336-0.75,0.75
	s0.336,0.75,0.75,0.75h3.262c-0.994,0.938-1.709,2.168-1.992,3.558l-1.662-2.877c-0.207-0.359-0.664-0.481-1.024-0.274
	c-0.359,0.207-0.481,0.666-0.274,1.024l1.578,2.729h-3.531l-1.357-2.354c-0.135-0.231-0.383-0.375-0.649-0.375H8.312
	c-0.269,0-0.516,0.145-0.649,0.377l-1.571,2.729c-0.133,0.23-0.133,0.518,0,0.748L7.661,28.1c0.134,0.232,0.382,0.377,0.649,0.377
	l3.149,0.002c0.269,0,0.517-0.144,0.649-0.375l1.357-2.354h3.705l-1.751,3.032c-0.207,0.357-0.084,0.816,0.274,1.023
	c0.117,0.068,0.246,0.102,0.374,0.102c0.26,0,0.512-0.135,0.649-0.375l1.715-2.969c0.347,1.449,1.154,2.725,2.269,3.646h-3.59
	c-0.414,0-0.75,0.336-0.75,0.75s0.336,0.75,0.75,0.75h3.151l-1.678,2.903l-2.718,0.003c-0.269,0-0.517,0.143-0.649,0.375
	l-1.574,2.725c-0.135,0.231-0.135,0.519,0,0.75l1.572,2.728c0.133,0.23,0.381,0.375,0.648,0.375l3.152,0.002
	c0.269,0,0.516-0.145,0.649-0.377l1.572-2.729c0.133-0.231,0.133-0.519-0.001-0.749l-1.355-2.348l1.766-3.059l1.754,3.034
	c0.139,0.24,0.391,0.375,0.65,0.375c0.127,0,0.256-0.032,0.373-0.101c0.358-0.207,0.481-0.666,0.274-1.024l-1.841-3.188
	c0.674,0.227,1.393,0.354,2.142,0.354c0.834,0,1.63-0.159,2.368-0.437l-1.889,3.27c-0.207,0.358-0.084,0.817,0.273,1.024
	c0.118,0.067,0.247,0.101,0.374,0.101c0.261,0,0.513-0.135,0.65-0.375l1.663-2.88l1.677,2.904l-1.36,2.347
	c-0.135,0.232-0.136,0.52,0,0.751l1.575,2.729c0.134,0.232,0.382,0.375,0.649,0.375h3.15c0.268,0,0.516-0.143,0.648-0.375
	l1.572-2.727c0.135-0.232,0.135-0.518,0-0.75l-1.574-2.73c-0.135-0.231-0.383-0.375-0.649-0.375h-0.004l-2.714,0.004l-1.678-2.906
	l3.33,0.001c0.414,0,0.75-0.336,0.75-0.75s-0.336-0.75-0.75-0.75l-3.769-0.001c1.169-0.967,2.009-2.318,2.321-3.857l1.838,3.184
	c0.139,0.24,0.391,0.375,0.65,0.375c0.127,0,0.256-0.032,0.373-0.102c0.358-0.207,0.481-0.666,0.274-1.023l-1.751-3.033h3.526
	l1.354,2.35c0.133,0.231,0.381,0.375,0.648,0.375l3.15,0.002c0.27,0,0.517-0.144,0.649-0.375l1.573-2.729
	C44.042,25.139,44.042,24.852,43.908,24.621z M32.828,9.932h0.866l0.434,0.75l0.708,1.227l-1.143,1.979h-1.416H31.41l-0.434-0.75
	l-0.709-1.229l1.143-1.977H32.828z M16.296,13.887l-1.143-1.979l0.709-1.228l0.433-0.75h0.866h1.417l1.145,1.979l-0.711,1.227
	l-0.434,0.749l-0.865,0.001L16.296,13.887z M12.161,24.998l-0.433,0.75l-0.709,1.229l-2.283-0.002L8.03,25.748l-0.433-0.75
	l0.433-0.75l0.708-1.229h2.281l0.709,1.229L12.161,24.998z M17.163,40.064h-0.87l-0.431-0.746l-0.709-1.23l1.142-1.975l1.419-0.002
	h0.864l0.434,0.752l0.707,1.224l-1.141,1.979L17.163,40.064z M33.694,36.109l1.142,1.979l-0.708,1.228l-0.433,0.75h-0.866h-1.418
	l-1.144-1.979l0.711-1.226l0.435-0.749l0.864-0.001L33.694,36.109z M28.234,29.107c-0.393,0.312-0.819,0.576-1.291,0.765
	c-0.604,0.242-1.258,0.384-1.947,0.384s-1.346-0.142-1.948-0.384c-0.471-0.188-0.897-0.454-1.29-0.765
	c-1.033-0.814-1.746-1.998-1.943-3.359c-0.035-0.247-0.075-0.493-0.075-0.75s0.04-0.503,0.075-0.75
	c0.197-1.361,0.91-2.544,1.943-3.359c0.393-0.311,0.818-0.574,1.289-0.765c0.604-0.242,1.26-0.384,1.949-0.384
	s1.346,0.142,1.948,0.384c0.471,0.188,0.897,0.454,1.291,0.765c1.032,0.814,1.745,1.998,1.942,3.359
	c0.035,0.247,0.075,0.493,0.075,0.75s-0.04,0.503-0.075,0.75C29.98,27.109,29.268,28.293,28.234,29.107z M38.969,26.973
	l-0.707-1.225l-0.433-0.751l0.433-0.749l0.709-1.229h2.281l0.709,1.229l0.432,0.748l-0.434,0.752l-0.707,1.227L38.969,26.973z"/>
</svg>
